<?xml version="1.0" encoding="UTF-8" standalone="no"?>
<!-- Created with Inkscape (http://www.inkscape.org/) -->

<svg
   xmlns:dc="http://purl.org/dc/elements/1.1/"
   xmlns:cc="http://creativecommons.org/ns#"
   xmlns:rdf="http://www.w3.org/1999/02/22-rdf-syntax-ns#"
   xmlns:svg="http://www.w3.org/2000/svg"
   xmlns="http://www.w3.org/2000/svg"
   xmlns:sodipodi="http://sodipodi.sourceforge.net/DTD/sodipodi-0.dtd"
   xmlns:inkscape="http://www.inkscape.org/namespaces/inkscape"
   version="1.1"
   id="svg834"
   xml:space="preserve"
   width="391.20447"
   height="93.923019"
   viewBox="0 0 391.20447 93.923019"
   sodipodi:docname="ode-toolbox-flow-diagram.svg"
   inkscape:version="0.92.3 (unknown)"><metadata
     id="metadata840"><rdf:RDF><cc:Work
         rdf:about=""><dc:format>image/svg+xml</dc:format><dc:type
           rdf:resource="http://purl.org/dc/dcmitype/StillImage" /><dc:title></dc:title></cc:Work></rdf:RDF></metadata><defs
     id="defs838"><clipPath
       clipPathUnits="userSpaceOnUse"
       id="clipPath850"><path
         d="M 0,1.2207e-4 H 960 V 540.00012 H 0 Z"
         id="path848"
         inkscape:connector-curvature="0"
         style="clip-rule:evenodd" /></clipPath><clipPath
       clipPathUnits="userSpaceOnUse"
       id="clipPath862"><path
         d="M 1.4305e-5,0 H 960.00001 V 540 H 1.4305e-5 Z"
         id="path860"
         inkscape:connector-curvature="0"
         style="clip-rule:evenodd" /></clipPath><clipPath
       clipPathUnits="userSpaceOnUse"
       id="clipPath876"><path
         d="M 1.4305e-5,0 H 960.00001 V 540 H 1.4305e-5 Z"
         id="path874"
         inkscape:connector-curvature="0"
         style="clip-rule:evenodd" /></clipPath><clipPath
       clipPathUnits="userSpaceOnUse"
       id="clipPath888"><path
         d="M -2.402e-5,1.8311e-4 H 959.99998 V 540.00018 H -2.402e-5 Z"
         id="path886"
         inkscape:connector-curvature="0"
         style="clip-rule:evenodd" /></clipPath><clipPath
       clipPathUnits="userSpaceOnUse"
       id="clipPath898"><path
         d="M 0,0 H 11.516 V 11.516 H 0 Z"
         id="path896"
         inkscape:connector-curvature="0" /></clipPath><clipPath
       clipPathUnits="userSpaceOnUse"
       id="clipPath918"><path
         d="M -7.895e-6,1.8311e-4 H 959.99999 V 540.00018 H -7.895e-6 Z"
         id="path916"
         inkscape:connector-curvature="0"
         style="clip-rule:evenodd" /></clipPath><clipPath
       clipPathUnits="userSpaceOnUse"
       id="clipPath928"><path
         d="M 0,0 H 11.516 V 11.516 H 0 Z"
         id="path926"
         inkscape:connector-curvature="0" /></clipPath><clipPath
       clipPathUnits="userSpaceOnUse"
       id="clipPath944"><path
         d="M 1.4305e-5,0 H 960.00001 V 540 H 1.4305e-5 Z"
         id="path942"
         inkscape:connector-curvature="0"
         style="clip-rule:evenodd" /></clipPath><clipPath
       clipPathUnits="userSpaceOnUse"
       id="clipPath956"><path
         d="M 1.4305e-5,0 H 960.00001 V 540 H 1.4305e-5 Z"
         id="path954"
         inkscape:connector-curvature="0"
         style="clip-rule:evenodd" /></clipPath><clipPath
       clipPathUnits="userSpaceOnUse"
       id="clipPath968"><path
         d="M 1.4305e-5,0 H 960.00001 V 540 H 1.4305e-5 Z"
         id="path966"
         inkscape:connector-curvature="0"
         style="clip-rule:evenodd" /></clipPath><clipPath
       clipPathUnits="userSpaceOnUse"
       id="clipPath980"><path
         d="M 1.4305e-5,0 H 960.00001 V 540 H 1.4305e-5 Z"
         id="path978"
         inkscape:connector-curvature="0"
         style="clip-rule:evenodd" /></clipPath><clipPath
       clipPathUnits="userSpaceOnUse"
       id="clipPath994"><path
         d="M 1.4305e-5,0 H 960.00001 V 540 H 1.4305e-5 Z"
         id="path992"
         inkscape:connector-curvature="0"
         style="clip-rule:evenodd" /></clipPath><clipPath
       clipPathUnits="userSpaceOnUse"
       id="clipPath1008"><path
         d="M 1.4305e-5,0 H 960.00001 V 540 H 1.4305e-5 Z"
         id="path1006"
         inkscape:connector-curvature="0"
         style="clip-rule:evenodd" /></clipPath><clipPath
       clipPathUnits="userSpaceOnUse"
       id="clipPath1020"><path
         d="M -1.0545e-4,1.8311e-4 H 959.99989 V 540.00018 H -1.0545e-4 Z"
         id="path1018"
         inkscape:connector-curvature="0"
         style="clip-rule:evenodd" /></clipPath><clipPath
       clipPathUnits="userSpaceOnUse"
       id="clipPath1030"><path
         d="M 0,0 H 11.516 V 11.516 H 0 Z"
         id="path1028"
         inkscape:connector-curvature="0" /></clipPath><clipPath
       clipPathUnits="userSpaceOnUse"
       id="clipPath1050"><path
         d="M 1.4305e-5,0 H 960.00001 V 540 H 1.4305e-5 Z"
         id="path1048"
         inkscape:connector-curvature="0"
         style="clip-rule:evenodd" /></clipPath><clipPath
       clipPathUnits="userSpaceOnUse"
       id="clipPath1062"><path
         d="M 1.4305e-5,0 H 960.00001 V 540 H 1.4305e-5 Z"
         id="path1060"
         inkscape:connector-curvature="0"
         style="clip-rule:evenodd" /></clipPath><clipPath
       clipPathUnits="userSpaceOnUse"
       id="clipPath1074"><path
         d="M 1.4305e-5,0 H 960.00001 V 540 H 1.4305e-5 Z"
         id="path1072"
         inkscape:connector-curvature="0"
         style="clip-rule:evenodd" /></clipPath></defs><sodipodi:namedview
     pagecolor="#ffffff"
     bordercolor="#666666"
     borderopacity="1"
     objecttolerance="10"
     gridtolerance="10"
     guidetolerance="10"
     inkscape:pageopacity="0"
     inkscape:pageshadow="2"
     inkscape:window-width="1920"
     inkscape:window-height="1056"
     id="namedview836"
     showgrid="false"
     fit-margin-top="0"
     fit-margin-left="0"
     fit-margin-right="0"
     fit-margin-bottom="0"
     inkscape:zoom="2.5610524"
     inkscape:cx="227.2616"
     inkscape:cy="48.290473"
     inkscape:window-x="0"
     inkscape:window-y="0"
     inkscape:window-maximized="1"
     inkscape:current-layer="g842" /><g
     id="g842"
     inkscape:groupmode="layer"
     inkscape:label="back_solver"
     transform="matrix(1.3333333,0,0,-1.3333333,-352.95999,452.18405)"><path
       d="m 351.06,306.72 0.97,-3.89 3.89,-0.97 -4.86,4.86 H 265.2 v -29.16 h 90.72 v 24.3"
       style="fill:#ffffff;stroke:#000000;stroke-width:0.95999998;stroke-linecap:butt;stroke-linejoin:miter;stroke-miterlimit:10;stroke-dasharray:none;stroke-opacity:1;fill-opacity:1"
       id="path868"
       inkscape:connector-curvature="0" /><g
       id="g870"><g
         id="g872"
         clip-path="url(#clipPath876)"><text
   transform="matrix(1,0,0,-1,291.58,286.22)"
   style="font-variant:normal;font-weight:normal;font-size:18px;font-family:Calibri;-inkscape-font-specification:Calibri;writing-mode:lr-tb;fill:#000000;fill-opacity:1;fill-rule:nonzero;stroke:none"
   id="text880"><tspan
     x="0 5.7420001 14.004 25.92"
     y="0"
     sodipodi:role="line"
     id="tspan878">JSON</tspan></text>

</g></g><g
       id="g912"><g
         id="g914"
         clip-path="url(#clipPath918)"><g
           id="g920"
           transform="matrix(0.91,0,0,0.91,378.96,259.56)"><g
             id="g922"
             transform="scale(6.2521,6.2523)"><g
               id="g924"
               clip-path="url(#clipPath928)"><path
                 d="m 5.76,4.3157 c -0.792,0 -1.44,0.648 -1.44,1.44 0,0.792 0.648,1.44 1.44,1.44 0.792,0 1.44,-0.648 1.44,-1.44 0,-0.792 -0.648,-1.44 -1.44,-1.44 z M 9,6.6557 c -0.072,0.264 -0.18,0.516 -0.312,0.744 l 0.3,0.9 -0.684,0.684 -0.9,-0.3 c -0.24,0.132 -0.492,0.24 -0.756,0.312 L 6.24,9.8357 H 5.28 L 4.86,8.9957 C 4.596,8.9237 4.344,8.8157 4.116,8.6837 l -0.9,0.3 -0.684,-0.684 0.3,-0.9 C 2.7,7.1597 2.592,6.9077 2.52,6.6437 L 1.68,6.2357 v -0.96 l 0.84,-0.42 C 2.592,4.5917 2.7,4.3397 2.832,4.1117 l -0.3,-0.9 0.684,-0.684 0.9,0.3 c 0.24,-0.132 0.492,-0.24 0.756,-0.312 l 0.42,-0.84 h 0.96 l 0.42,0.84 c 0.264,0.072 0.516,0.18 0.744,0.312 l 0.9,-0.3 0.684,0.684 -0.3,0.9 c 0.132,0.24 0.24,0.492 0.312,0.756 l 0.84,0.42 v 0.96 z"
                 style="fill:#e7e6e6;fill-opacity:1;fill-rule:nonzero;stroke:none"
                 id="path930"
                 inkscape:connector-curvature="0" /><path
                 d="m 5.76,4.3157 c -0.792,0 -1.44,0.648 -1.44,1.44 0,0.792 0.648,1.44 1.44,1.44 0.792,0 1.44,-0.648 1.44,-1.44 0,-0.792 -0.648,-1.44 -1.44,-1.44 z M 9,6.6557 c -0.072,0.264 -0.18,0.516 -0.312,0.744 l 0.3,0.9 -0.684,0.684 -0.9,-0.3 c -0.24,0.132 -0.492,0.24 -0.756,0.312 L 6.24,9.8357 H 5.28 L 4.86,8.9957 C 4.596,8.9237 4.344,8.8157 4.116,8.6837 l -0.9,0.3 -0.684,-0.684 0.3,-0.9 C 2.7,7.1597 2.592,6.9077 2.52,6.6437 L 1.68,6.2357 v -0.96 l 0.84,-0.42 C 2.592,4.5917 2.7,4.3397 2.832,4.1117 l -0.3,-0.9 0.684,-0.684 0.9,0.3 c 0.24,-0.132 0.492,-0.24 0.756,-0.312 l 0.42,-0.84 h 0.96 l 0.42,0.84 c 0.264,0.072 0.516,0.18 0.744,0.312 l 0.9,-0.3 0.684,0.684 -0.3,0.9 c 0.132,0.24 0.24,0.492 0.312,0.756 l 0.84,0.42 v 0.96 z"
                 style="fill:none;stroke:#3333ff;stroke-width:0.14;stroke-linecap:butt;stroke-linejoin:miter;stroke-miterlimit:10;stroke-dasharray:none;stroke-opacity:1"
                 id="path932"
                 inkscape:connector-curvature="0" /></g></g></g></g></g><path
       d="m 359.88,299.4 h 12.96 v 7.32 l 12.96,-14.64 -12.96,-14.64 v 7.32 h -12.96 z"
       style="fill:#4472c4;fill-opacity:1;fill-rule:evenodd;stroke:none"
       id="path934"
       inkscape:connector-curvature="0" /><path
       d="m 359.88,299.4 h 12.96 v 7.32 l 12.96,-14.64 -12.96,-14.64 v 7.32 h -12.96 z"
       style="fill:none;stroke:#2f528f;stroke-width:0.95999998;stroke-linecap:butt;stroke-linejoin:miter;stroke-miterlimit:10;stroke-dasharray:none;stroke-opacity:1"
       id="path936"
       inkscape:connector-curvature="0" /><g
       id="g950"
       transform="translate(0,-6)"><g
         id="g952"
         clip-path="url(#clipPath956)"><text
   transform="matrix(1,0,0,-1,365.4,332.64)"
   style="font-style:italic;font-variant:normal;font-weight:normal;font-size:18px;font-family:Calibri;-inkscape-font-specification:Calibri-Italic;writing-mode:lr-tb;fill:#000000;fill-opacity:1;fill-rule:nonzero;stroke:none"
   id="text960"><tspan
     x="0 11.772 22.841999"
     y="0"
     sodipodi:role="line"
     id="tspan958">ODE</tspan></text>

</g></g><g
       id="g962"
       transform="translate(0,-6)"><g
         id="g964"
         clip-path="url(#clipPath968)"><text
   transform="matrix(1,0,0,-1,396.96,332.64)"
   style="font-style:italic;font-variant:normal;font-weight:normal;font-size:18px;font-family:Calibri;-inkscape-font-specification:Calibri-Italic;writing-mode:lr-tb;fill:#000000;fill-opacity:1;fill-rule:nonzero;stroke:none"
   id="text972"><tspan
     x="0"
     y="0"
     id="tspan970">-</tspan></text>

</g></g><g
       id="g974"
       transform="translate(0,-6)"><g
         id="g976"
         clip-path="url(#clipPath980)"><text
   transform="matrix(1,0,0,-1,402.48,332.64)"
   style="font-style:italic;font-variant:normal;font-weight:normal;font-size:18px;font-family:Calibri;-inkscape-font-specification:Calibri-Italic;writing-mode:lr-tb;fill:#000000;fill-opacity:1;fill-rule:nonzero;stroke:none"
   id="text984"><tspan
     x="0 5.7600002 14.994 24.228001 28.368 37.566002 46.439999"
     y="0"
     sodipodi:role="line"
     id="tspan982">toolbox</tspan></text>

</g></g><path
       d="m 551.7,307.08 0.97,-3.89 3.89,-0.97 -4.86,4.86 h -85.86 v -29.16 h 90.72 v 24.3"
       style="fill:#ffffff;stroke:#000000;stroke-width:0.95999998;stroke-linecap:butt;stroke-linejoin:miter;stroke-miterlimit:10;stroke-dasharray:none;stroke-opacity:1;fill-opacity:1"
       id="path986"
       inkscape:connector-curvature="0" /><g
       id="g988"><g
         id="g990"
         clip-path="url(#clipPath994)"><text
   transform="matrix(1,0,0,-1,492.46,286.61)"
   style="font-variant:normal;font-weight:normal;font-size:18px;font-family:Calibri;-inkscape-font-specification:Calibri;writing-mode:lr-tb;fill:#000000;fill-opacity:1;fill-rule:nonzero;stroke:none"
   id="text998"><tspan
     x="0 5.7420001 14.004 25.92"
     y="0"
     sodipodi:role="line"
     id="tspan996">JSON</tspan></text>

</g></g><path
       d="m 437.4,299.88 h 12.9 v 7.32 l 12.9,-14.64 -12.9,-14.64 v 7.32 h -12.9 z"
       style="fill:#4472c4;fill-opacity:1;fill-rule:evenodd;stroke:none"
       id="path1080"
       inkscape:connector-curvature="0" /><path
       d="m 437.4,299.88 h 12.9 v 7.32 l 12.9,-14.64 -12.9,-14.64 v 7.32 h -12.9 z"
       style="fill:none;stroke:#2f528f;stroke-width:0.95999998;stroke-linecap:butt;stroke-linejoin:miter;stroke-miterlimit:10;stroke-dasharray:none;stroke-opacity:1"
       id="path1082"
       inkscape:connector-curvature="0" /></g></svg>